<svg xmlns:xlink="http://www.w3.org/1999/xlink"  width="36" height="37" viewBox="0 0 36 37" fill="none" xmlns="http://www.w3.org/2000/svg">
                                                <path d="M30 6.16357H6C4.3455 6.16357 3 7.50907 3 9.16357V27.1636C3 28.8181 4.3455 30.1636 6 30.1636H30C31.6545 30.1636 33 28.8181 33 27.1636V9.16357C33 7.50907 31.6545 6.16357 30 6.16357ZM30 9.16357V9.93007L18 19.2646L6 9.93157V9.16357H30ZM6 27.1636V13.7296L17.079 22.3471C17.349 22.5586 17.6745 22.6636 18 22.6636C18.3255 22.6636 18.651 22.5586 18.921 22.3471L30 13.7296L30.003 27.1636H6Z" fill="#6772E5"></path>
                                            </svg>