<svg xmlns:xlink="http://www.w3.org/1999/xlink"  width="36" height="36" viewBox="0 0 36 36" fill="none" xmlns="http://www.w3.org/2000/svg">
                                                <path d="M24.849 32.9985C24.8565 32.9985 24.8835 32.9985 24.891 32.9985C25.683 32.9985 26.4315 32.6865 26.9985 32.1195L31.0665 28.0515C31.653 27.465 31.653 26.517 31.0665 25.9305L25.0665 19.9305C24.48 19.344 23.532 19.344 22.9455 19.9305L20.5545 22.3215C19.446 21.9915 17.3775 21.2415 16.0665 19.9305C14.7555 18.6195 14.0055 16.551 13.6755 15.4425L16.0665 13.0515C16.653 12.465 16.653 11.517 16.0665 10.9305L10.0665 4.9305C9.50402 4.368 8.50802 4.368 7.94552 4.9305L3.87902 8.9985C3.30902 9.5685 2.98802 10.3515 3.00002 11.151C3.03452 13.287 3.60002 20.706 9.44702 26.553C15.294 32.4 22.713 32.964 24.849 32.9985ZM9.00752 8.112L12.8865 11.991L10.947 13.9305C10.5885 14.2875 10.4355 14.8035 10.5405 15.2985C10.5765 15.471 11.457 19.5615 13.947 22.0515C16.437 24.5415 20.5275 25.422 20.7 25.458C21.1995 25.563 21.711 25.41 22.068 25.0515L24.0075 23.112L27.8865 26.991L24.8775 29.9985C23.0055 29.967 16.6005 29.4645 11.568 24.4305C6.51902 19.3815 6.03002 12.954 6.00002 11.1195L9.00752 8.112ZM29.9985 16.4985H32.9985C32.9985 8.8035 27.189 3 19.4835 3V6C25.5765 6 29.9985 10.4145 29.9985 16.4985Z" fill="#6772E5"></path>
                                                <path d="M19.4985 12C22.653 12 23.9985 13.3455 23.9985 16.5H26.9985C26.9985 11.6625 24.336 9 19.4985 9V12V12Z" fill="#6772E5"></path>
                                            </svg>