<svg xmlns:xlink="http://www.w3.org/1999/xlink"  width="22" height="22" viewBox="0 0 22 22" fill="none" xmlns="http://www.w3.org/2000/svg">
                                                <path d="M19.2502 3.66659H16.5002V2.74992C16.5002 2.243 16.0904 1.83325 15.5835 1.83325H6.41683C5.90991 1.83325 5.50016 2.243 5.50016 2.74992V3.66659H2.75016C2.24325 3.66659 1.8335 4.07634 1.8335 4.58325V7.33325C1.8335 11.2841 3.48258 13.6674 6.25091 13.7609C7.05758 15.1442 8.44725 16.1415 10.0835 16.4174V18.3333H8.25016V20.1666H13.7502V18.3333H11.9168V16.4174C13.5522 16.1406 14.9427 15.1433 15.7494 13.7609C18.5177 13.6674 20.1668 11.2841 20.1668 7.33325V4.58325C20.1668 4.07634 19.7571 3.66659 19.2502 3.66659ZM3.66683 7.33325V5.49992H5.50016V11.0192V11.7608C3.86483 11.0714 3.66683 8.524 3.66683 7.33325ZM11.0002 14.6666C8.978 14.6666 7.3335 13.0221 7.3335 10.9999V3.66659H14.6668V10.9999C14.6668 13.0221 13.0223 14.6666 11.0002 14.6666ZM16.5002 11.7608V11.0192V5.49992H18.3335V7.33325C18.3335 8.524 18.1355 11.0714 16.5002 11.7608Z" fill="#6772E5"></path>
                                            </svg>