<svg xmlns:xlink="http://www.w3.org/1999/xlink"  width="22" height="22" viewBox="0 0 22 22" fill="none" xmlns="http://www.w3.org/2000/svg">
                                            <path fill-rule="evenodd" clip-rule="evenodd" d="M6.41667 6.41659C6.41667 3.88934 8.47275 1.83325 11 1.83325C13.5273 1.83325 15.5833 3.88934 15.5833 6.41659C15.5833 8.94383 13.5273 10.9999 11 10.9999C8.47275 10.9999 6.41667 8.94383 6.41667 6.41659ZM11 9.16658C9.48122 9.16658 8.25 7.93537 8.25 6.41659C8.25 4.8978 9.48122 3.66659 11 3.66659C12.5188 3.66659 13.75 4.8978 13.75 6.41659C13.75 7.93537 12.5188 9.16658 11 9.16658Z" fill="#6772E5"></path>
                                            <path d="M19.25 18.3333V19.2499H17.4167V18.3333C17.4167 15.806 15.3606 13.7499 12.8333 13.7499H9.16667C6.63942 13.7499 4.58333 15.806 4.58333 18.3333V19.2499H2.75V18.3333C2.75 14.7958 5.62833 11.9166 9.16667 11.9166H12.8333C16.3708 11.9166 19.25 14.7958 19.25 18.3333Z" fill="#6772E5"></path>
                                        </svg>