<svg xmlns:xlink="http://www.w3.org/1999/xlink"  width="22" height="22" viewBox="0 0 22 22" fill="none" xmlns="http://www.w3.org/2000/svg">
                                            <path d="M4.58626 20.1666H8.25293H13.7529H17.4196C18.4307 20.1666 19.2529 19.3443 19.2529 18.3332V10.0832C19.2529 9.84032 19.1567 9.60657 18.9843 9.43515L11.651 2.10182C11.2926 1.7434 10.7133 1.7434 10.3548 2.10182L3.02151 9.43515C2.84918 9.60657 2.75293 9.84032 2.75293 10.0832V18.3332C2.75293 19.3443 3.57518 20.1666 4.58626 20.1666ZM9.1696 18.3332V13.7499H12.8363V18.3332H9.1696ZM4.58626 10.4627L11.0029 4.04607L17.4196 10.4627L17.4205 18.3332H14.6696V13.7499C14.6696 12.7388 13.8473 11.9166 12.8363 11.9166H9.1696C8.15851 11.9166 7.33626 12.7388 7.33626 13.7499V18.3332H4.58626V10.4627Z" fill="#6772E5"></path>
                                        </svg>