<svg xmlns:xlink="http://www.w3.org/1999/xlink"  width="36" height="36" viewBox="0 0 36 36" fill="none" xmlns="http://www.w3.org/2000/svg">
                                                <path d="M7.4745 10.7964C9.2871 10.7964 10.7565 9.32702 10.7565 7.51442C10.7565 5.70182 9.2871 4.23242 7.4745 4.23242C5.6619 4.23242 4.1925 5.70182 4.1925 7.51442C4.1925 9.32702 5.6619 10.7964 7.4745 10.7964Z" fill="#6772E5"></path>
                                                <path d="M13.8555 13.282V31.4905H19.509V22.486C19.509 20.11 19.956 17.809 22.902 17.809C25.8075 17.809 25.8435 20.5255 25.8435 22.636V31.492H31.5V21.5065C31.5 16.6015 30.444 12.832 24.711 12.832C21.9585 12.832 20.1135 14.3425 19.359 15.772H19.2825V13.282H13.8555V13.282ZM4.6425 13.282H10.305V31.4905H4.6425V13.282Z" fill="#6772E5"></path>
                                            </svg>