<svg xmlns:xlink="http://www.w3.org/1999/xlink"  width="22" height="22" viewBox="0 0 22 22" fill="none" xmlns="http://www.w3.org/2000/svg">
                                            <path d="M18.3335 3.66675H3.66683C2.65575 3.66675 1.8335 4.489 1.8335 5.50008V16.5001C1.8335 17.5112 2.65575 18.3334 3.66683 18.3334H18.3335C19.3446 18.3334 20.1668 17.5112 20.1668 16.5001V5.50008C20.1668 4.489 19.3446 3.66675 18.3335 3.66675ZM18.3335 5.50008V5.9685L11.0002 11.6729L3.66683 5.96941V5.50008H18.3335ZM3.66683 16.5001V8.29041L10.4373 13.5567C10.6023 13.6859 10.8012 13.7501 11.0002 13.7501C11.1991 13.7501 11.398 13.6859 11.563 13.5567L18.3335 8.29041L18.3353 16.5001H3.66683Z" fill="#6772E5"></path>
                                        </svg>